<svg xmlns="http://www.w3.org/2000/svg" viewBox="0 0 480 400" width="480" height="400">
  <defs>
    <linearGradient id="bg" x1="0" y1="0" x2="1" y2="1">
      <stop offset="0%" stop-color="#1a3255"/>
      <stop offset="100%" stop-color="#243f6a"/>
    </linearGradient>
  </defs>

  <rect width="480" height="400" rx="12" fill="url(#bg)"/>
  <rect width="480" height="400" rx="12" fill="none" stroke="rgba(212,175,55,0.25)" stroke-width="1.5"/>

  <circle cx="410" cy="55" r="140" fill="none" stroke="rgba(212,175,55,0.06)" stroke-width="40"/>
  <circle cx="70" cy="360" r="110" fill="none" stroke="rgba(212,175,55,0.05)" stroke-width="30"/>

  <rect x="40" y="34" width="50" height="2" rx="1" fill="#d4af37" opacity="0.7"/>
  <text x="240" y="54" text-anchor="middle" fill="#d4af37"
        font-family="Arial, sans-serif" font-size="9.5" font-weight="700" letter-spacing="2.8">
    CONSUMER DISPUTES COMMISSION
  </text>

  <!-- Scales of Justice -->
  <circle cx="240" cy="78" r="5" fill="#d4af37" opacity="0.9"/>
  <line x1="240" y1="83" x2="240" y2="193" stroke="#d4af37" stroke-width="2" opacity="0.85"/>
  <line x1="148" y1="102" x2="332" y2="102" stroke="#d4af37" stroke-width="2" opacity="0.85"/>
  <circle cx="240" cy="102" r="3.5" fill="#d4af37" opacity="0.9"/>

  <line x1="148" y1="102" x2="136" y2="153" stroke="rgba(212,175,55,0.65)" stroke-width="1.5"/>
  <line x1="148" y1="102" x2="160" y2="153" stroke="rgba(212,175,55,0.65)" stroke-width="1.5"/>
  <line x1="123" y1="153" x2="173" y2="153" stroke="#d4af37" stroke-width="1.5" opacity="0.8"/>
  <path d="M123,153 Q148,173 173,153" fill="rgba(212,175,55,0.1)" stroke="#d4af37" stroke-width="1.5" opacity="0.85"/>

  <line x1="332" y1="102" x2="320" y2="153" stroke="rgba(212,175,55,0.65)" stroke-width="1.5"/>
  <line x1="332" y1="102" x2="344" y2="153" stroke="rgba(212,175,55,0.65)" stroke-width="1.5"/>
  <line x1="307" y1="153" x2="357" y2="153" stroke="#d4af37" stroke-width="1.5" opacity="0.8"/>
  <path d="M307,153 Q332,173 357,153" fill="rgba(212,175,55,0.1)" stroke="#d4af37" stroke-width="1.5" opacity="0.85"/>

  <path d="M228,193 L240,173 L252,193 Z" fill="#d4af37" opacity="0.7"/>
  <rect x="205" y="193" width="70" height="5" rx="2.5" fill="#d4af37" opacity="0.55"/>

  <line x1="50" y1="228" x2="430" y2="228" stroke="rgba(212,175,55,0.2)" stroke-width="1"/>

  <text x="240" y="260" text-anchor="middle" fill="white"
        font-family="Georgia, 'Times New Roman', serif" font-size="16.5" font-weight="700">
    Consumer Dispute
  </text>
  <text x="240" y="284" text-anchor="middle" fill="rgba(212,175,55,0.75)"
        font-family="Georgia, 'Times New Roman', serif" font-size="13" font-style="italic">
    against
  </text>
  <text x="240" y="306" text-anchor="middle" fill="white"
        font-family="Georgia, 'Times New Roman', serif" font-size="16.5" font-weight="700">
    Air India
  </text>

  <text x="240" y="333" text-anchor="middle" fill="rgba(255,255,255,0.45)"
        font-family="Arial, sans-serif" font-size="11">
    Delhi &#x2013; New York International Flight
  </text>

  <text x="240" y="358" text-anchor="middle" fill="rgba(212,175,55,0.7)"
        font-family="Arial, sans-serif" font-size="10.5" font-weight="600" letter-spacing="0.3">
    Deficiency in Service  ·  Consumer Protection
  </text>

  <rect x="130" y="370" width="220" height="22" rx="11" fill="rgba(212,175,55,0.1)" stroke="#d4af37" stroke-width="1" opacity="0.75"/>
  <text x="240" y="385" text-anchor="middle" fill="#d4af37"
        font-family="Arial, sans-serif" font-size="9.5" font-weight="700" letter-spacing="1.2">
    &#8377;1.5L COMPENSATION AWARDED
  </text>
</svg>
